<?xml version="1.0" encoding="UTF-8"?>
<svg version="1.1" xmlns="http://www.w3.org/2000/svg" width="300" height="237">
<path d="M0 0 C1.21742889 -0.00902847 2.43485779 -0.01805695 3.68917847 -0.02735901 C6.25255896 -0.0418152 8.81597596 -0.05073667 11.37939453 -0.05444336 C15.299129 -0.06638931 19.21731358 -0.11566608 23.13671875 -0.16601562 C25.63280485 -0.17547512 28.12890057 -0.18271242 30.625 -0.1875 C31.79386749 -0.20703232 32.96273499 -0.22656464 34.16702271 -0.24668884 C43.21179744 -0.19648123 43.21179744 -0.19648123 46.90185547 2.78100586 C50.3190578 6.66665426 50.52147686 9.08102493 50.46484375 14.11328125 C50.03902123 17.48486231 48.64491576 19.11130118 46.1796875 21.37109375 C43.03161494 23.30029991 40.65542592 23.62138232 36.98730469 23.62646484 C35.95232849 23.63342377 34.91735229 23.64038269 33.85101318 23.64755249 C32.1806601 23.64605698 32.1806601 23.64605698 30.4765625 23.64453125 C28.1106724 23.6648252 25.74478701 23.68567608 23.37890625 23.70703125 C19.65507015 23.72960293 15.93142083 23.74609102 12.20751953 23.75195312 C8.60935812 23.76150112 5.01203516 23.7953134 1.4140625 23.83203125 C0.3085907 23.82698578 -0.7968811 23.82194031 -1.93585205 23.81674194 C-9.06522776 23.90700542 -15.00971204 24.73874415 -20.33843994 29.81820679 C-25.63376203 35.87849343 -26.21140991 40.35446347 -26.0703125 48.23828125 C-25.55961797 54.63792211 -22.57398598 58.28072355 -17.8203125 62.37109375 C-12.1316802 66.16045688 -6.4792928 65.81508967 0.1171875 65.87109375 C15.69632523 66.00384355 15.69632523 66.00384355 21.0546875 71.18359375 C23.29520667 75.5401588 23.49018498 78.353352 22.0546875 83.05859375 C19.9859512 86.71336121 18.90296763 87.60530341 15.1796875 89.37109375 C10.51159762 89.99168085 5.82222373 89.83451032 1.1171875 89.80859375 C-0.14287109 89.82857422 -1.40292969 89.84855469 -2.70117188 89.86914062 C-16.82657856 89.86184067 -27.67532762 85.94349621 -38.04296875 76.3046875 C-48.14452058 65.74998194 -50.4114743 54.32382204 -50.15625 40.28515625 C-49.63851405 29.14741513 -44.50457581 20.22643528 -36.8203125 12.37109375 C-25.87334072 2.52944727 -14.39292891 0.0662635 0 0 Z " fill="#007DFE" transform="translate(149.8203125,56.62890625)"/>
<path d="M0 0 C7.59 0 15.18 0 23 0 C23 14.85 23 29.7 23 45 C21.02 43.68 19.04 42.36 17 41 C11.58705256 39.19568419 5.69124757 39.40651768 0 39 C0 26.13 0 13.26 0 0 Z " fill="#007DFE" transform="translate(150,82)"/>
<path d="M0 0 C4.30539944 2.84318831 6.45722605 5.12228236 8 10 C8.22705078 12.67895508 8.22705078 12.67895508 8.1953125 15.51953125 C8.19031738 16.44096924 8.18532227 17.36240723 8.18017578 18.31176758 C8.15286377 20.04463013 8.15286377 20.04463013 8.125 21.8125 C8.08375 25.504375 8.0425 29.19625 8 33 C0.41 33 -7.18 33 -15 33 C-15.13510945 28.79058993 -15.23419583 24.58552719 -15.3125 20.375 C-15.35439453 19.18519531 -15.39628906 17.99539062 -15.43945312 16.76953125 C-15.57761714 6.87698752 -15.57761714 6.87698752 -12.66796875 3.2265625 C-8.55992312 -0.20182112 -5.25081184 -0.53398086 0 0 Z " fill="#007DFE" transform="translate(165,22)"/>
<path d="M0 0 C0.33 0.33 0.66 0.66 1 1 C1.33 0.34 1.66 -0.32 2 -1 C3.98 -1 5.96 -1 8 -1 C8.08738991 3.37487331 8.140524 7.74952078 8.1875 12.125 C8.21263672 13.3625 8.23777344 14.6 8.26367188 15.875 C8.27333984 17.07382813 8.28300781 18.27265625 8.29296875 19.5078125 C8.3086792 20.60754395 8.32438965 21.70727539 8.34057617 22.84033203 C7.84580381 27.43054268 6.3500091 30.8088155 2.875 33.875 C-1.17347797 35.45918703 -4.71041548 35.67849316 -9 35 C-12.5 33.3125 -12.5 33.3125 -15 31 C-15.875 28.25 -15.875 28.25 -16 26 C-14.02 26 -12.04 26 -10 26 C-10 26.66 -10 27.32 -10 28 C-6.69432511 28.85387105 -6.69432511 28.85387105 -3 29 C-0.45668762 27.45714369 -0.45668762 27.45714369 1 25 C1 23.68 1 22.36 1 21 C-0.010625 21.53625 -1.02125 22.0725 -2.0625 22.625 C-5.1483788 23.93056411 -6.16035477 23.98097486 -9.6875 23.5625 C-13.90712851 21.57210919 -15.12107724 20.28394389 -17 16 C-17.73140466 10.85754659 -17.83775091 6.57883826 -15.375 1.9375 C-10.05965317 -2.398704 -6.33059364 -2.35845645 0 0 Z M-9.875 5.625 C-11.33486373 8.70693454 -11.49214954 10.62526031 -11 14 C-8.98799381 16.83171242 -7.87928233 17.84987863 -4.4375 18.4375 C-1.99460041 18.16948506 -1.99460041 18.16948506 -0.25 16.8125 C1.38379608 14.44349569 1.86266868 12.8839577 2 10 C0.8584081 7.7168162 -0.19012683 5.80987317 -2 4 C-6.30994413 3.48513396 -6.30994413 3.48513396 -9.875 5.625 Z " fill="#050708" transform="translate(103,180)"/>
<path d="M0 0 C1.98 0 3.96 0 6 0 C6 10.56 6 21.12 6 32 C4.02 32 2.04 32 0 32 C-0.33 31.34 -0.66 30.68 -1 30 C-1.99 30.66 -2.98 31.32 -4 32 C-7.06526351 32.54531842 -9.93408329 32.54325893 -13 32 C-15.75569447 29.81840855 -17.43588747 28.12822506 -19 25 C-19.53962423 20.08145785 -19.4622111 16.07849257 -17.5 11.5 C-14.29369338 8.29369338 -11.54623852 7.07838342 -7 7 C-3.5 8.375 -3.5 8.375 -1 10 C-0.67 6.7 -0.34 3.4 0 0 Z M-13 17 C-13.61793165 20.70758991 -13.50197249 22.2935202 -11.3125 25.375 C-9.11013384 27.14214642 -9.11013384 27.14214642 -6.5 27.5625 C-3.8000871 27.16818354 -3.8000871 27.16818354 -1.625 24.875 C0.26733708 22.09679133 0.26733708 22.09679133 -0.0625 18.875 C-1.22526445 15.30404361 -1.22526445 15.30404361 -4 13 C-8.43267953 12.20439085 -10.423793 13.37422719 -13 17 Z " fill="#050607" transform="translate(63,171)"/>
<path d="M0 0 C0.99 0 1.98 0 3 0 C5.31 0 7.62 0 10 0 C10 7.92 10 15.84 10 24 C6.66666667 24 3.33333333 24 0 24 C-1.11375 24.3403125 -1.11375 24.3403125 -2.25 24.6875 C-6.20668283 25.13712305 -8.53654705 23.86000251 -12 22 C-15.06975955 19.2372164 -15.69375227 16.17012823 -16.06640625 12.09375 C-15.9543115 8.55946859 -14.72516435 6.03390971 -13 3 C-8.73585545 -0.99763552 -5.56727879 -1.04386477 0 0 Z M-7.875 6 C-9.68498652 9.21775381 -9.67345584 12.40823552 -9 16 C-6.89806836 18.49117823 -5.63659511 18.90683974 -2.4375 19.375 C-0.01888989 19.14609778 -0.01888989 19.14609778 1.8125 18 C3.71233631 14.80027569 3.54304262 11.62028416 3 8 C2.03882095 5.87129307 2.03882095 5.87129307 0 5 C-3.08815875 4.61398016 -5.10184376 4.52098334 -7.875 6 Z " fill="#040708" transform="translate(160,179)"/>
<path d="M0 0 C2.5625 2.125 2.5625 2.125 4 5 C4 7.64 4 10.28 4 13 C-1.61 13 -7.22 13 -13 13 C-12.34 14.32 -11.68 15.64 -11 17 C-8.08347826 17.16681109 -8.08347826 17.16681109 -5 17 C-4.34 16.34 -3.68 15.68 -3 15 C0.625 14.875 0.625 14.875 4 15 C1.375 20.75 1.375 20.75 -2 23 C-6.89174688 24.33411278 -10.30996777 23.91075387 -15 22 C-18.23852619 19.18759568 -19.27661865 16.69474757 -19.9375 12.5625 C-20.23717218 8.27433379 -19.48460018 5.59838647 -17 2 C-11.75662279 -2.9050948 -6.41433986 -2.35388619 0 0 Z M-13 6 C-13 6.99 -13 7.98 -13 9 C-9.37 9 -5.74 9 -2 9 C-2.66 7.35 -3.32 5.7 -4 4 C-9.0205829 3.49708619 -9.0205829 3.49708619 -13 6 Z " fill="#040708" transform="translate(206,180)"/>
<path d="M0 0 C1.95046942 1.61418159 2.87018693 2.74037386 4 5 C4.08308638 6.37548156 4.10736016 7.75485796 4.09765625 9.1328125 C4.09443359 9.93847656 4.09121094 10.74414062 4.08789062 11.57421875 C4.07951172 12.41597656 4.07113281 13.25773438 4.0625 14.125 C4.05798828 14.97449219 4.05347656 15.82398438 4.04882812 16.69921875 C4.03702874 18.79950909 4.01909306 20.8997633 4 23 C2.02 23 0.04 23 -2 23 C-2.04898438 21.95199219 -2.09796875 20.90398437 -2.1484375 19.82421875 C-2.22348143 18.44528646 -2.29902857 17.0663815 -2.375 15.6875 C-2.4059375 14.99720703 -2.436875 14.30691406 -2.46875 13.59570312 C-2.68124919 9.93009211 -2.91933861 8.12099208 -5 5 C-8.08365871 4.7497843 -8.08365871 4.7497843 -11 5 C-12.585869 8.171738 -12.37866445 11.63513822 -12.5625 15.125 C-12.60568359 15.87910156 -12.64886719 16.63320312 -12.69335938 17.41015625 C-12.7994832 19.27321888 -12.90025001 21.13658524 -13 23 C-14.98 23 -16.96 23 -19 23 C-19 15.08 -19 7.16 -19 -1 C-16 -1 -13 -1 -10 -1 C-9.401875 -1.20625 -8.80375 -1.4125 -8.1875 -1.625 C-5.00487164 -2.17059343 -2.93519067 -1.24901731 0 0 Z " fill="#050608" transform="translate(234,180)"/>
<path d="M0 0 C1.98 0 3.96 0 6 0 C6 1.98 6 3.96 6 6 C7.98 6 9.96 6 12 6 C12 7.65 12 9.3 12 11 C10.02 11 8.04 11 6 11 C6.33 15.29 6.66 19.58 7 24 C8.65 24.33 10.3 24.66 12 25 C12 26.65 12 28.3 12 30 C4.71375465 30.48574969 4.71375465 30.48574969 1.75 28.46875 C-0.6278793 25.1142417 -0.44389656 22.19504925 -0.25 18.25 C-0.23195312 17.55261719 -0.21390625 16.85523438 -0.1953125 16.13671875 C-0.14838554 14.42388461 -0.07664605 12.71176176 0 11 C-0.99 11 -1.98 11 -3 11 C-3 9.35 -3 7.7 -3 6 C-2.01 6 -1.02 6 0 6 C0 4.02 0 2.04 0 0 Z " fill="#050708" transform="translate(130,173)"/>
<path d="M0 0 C1.98 0 3.96 0 6 0 C6 1.98 6 3.96 6 6 C7.65 6 9.3 6 11 6 C11 7.65 11 9.3 11 11 C9.35 11 7.7 11 6 11 C6.33 15.29 6.66 19.58 7 24 C8.32 24.33 9.64 24.66 11 25 C11 26.65 11 28.3 11 30 C4.79435269 30.35801811 4.79435269 30.35801811 1.78125 29 C-0.9482992 25.935243 -0.42631626 22.69484837 -0.25 18.8125 C-0.23195312 18.06291016 -0.21390625 17.31332031 -0.1953125 16.54101562 C-0.14824109 14.6934629 -0.07649766 12.84656841 0 11 C-0.99 11 -1.98 11 -3 11 C-3 9.35 -3 7.7 -3 6 C-2.01 6 -1.02 6 0 6 C0 4.02 0 2.04 0 0 Z " fill="#050708" transform="translate(245,173)"/>
<path d="M0 0 C1.98 0 3.96 0 6 0 C6 10.56 6 21.12 6 32 C4.02 32 2.04 32 0 32 C0 21.44 0 10.88 0 0 Z " fill="#050708" transform="translate(176,171)"/>
<path d="M0 0 C1.98 0 3.96 0 6 0 C6 7.92 6 15.84 6 24 C4.02 24 2.04 24 0 24 C0 16.08 0 8.16 0 0 Z " fill="#050708" transform="translate(117,179)"/>
<path d="M0 0 C1.98 0 3.96 0 6 0 C6 7.92 6 15.84 6 24 C4.02 24 2.04 24 0 24 C0 16.08 0 8.16 0 0 Z " fill="#050708" transform="translate(75,179)"/>
<path d="M0 0 C2.625 0.375 2.625 0.375 5 1 C5.625 2.875 5.625 2.875 6 5 C5.34 5.66 4.68 6.32 4 7 C1.375 6.625 1.375 6.625 -1 6 C-1.625 4.125 -1.625 4.125 -2 2 C-1.34 1.34 -0.68 0.68 0 0 Z " fill="#050708" transform="translate(118,169)"/>
<path d="M0 0 C2.625 0.375 2.625 0.375 5 1 C5.625 2.875 5.625 2.875 6 5 C5.34 5.66 4.68 6.32 4 7 C1.375 6.625 1.375 6.625 -1 6 C-1.625 4.125 -1.625 4.125 -2 2 C-1.34 1.34 -0.68 0.68 0 0 Z " fill="#050708" transform="translate(76,169)"/>
</svg>
